<?xml version="1.0" standalone="no"?>
<!DOCTYPE svg PUBLIC "-//W3C//DTD SVG 20010904//EN"
 "http://www.w3.org/TR/2001/REC-SVG-20010904/DTD/svg10.dtd">
<svg version="1.0" xmlns="http://www.w3.org/2000/svg"
 width="700.000000pt" height="700.000000pt" viewBox="0 0 700.000000 700.000000"
 preserveAspectRatio="xMidYMid meet">
<metadata>
Created by potrace 1.14, written by Peter Selinger 2001-2017
</metadata>
<g transform="translate(0.000000,700.000000) scale(0.100000,-0.100000)"
fill="#000000" stroke="none">
<path d="M0 3500 l0 -3500 3500 0 3500 0 0 3500 0 3500 -3500 0 -3500 0 0
-3500z m3658 2123 l-3 -208 -2 202 -3 202 -103 4 -102 3 108 2 107 2 -2 -207z
m170 200 l-27 -4 -4 -122 -3 -122 -2 128 -2 127 33 -1 c29 -2 30 -2 5 -6z
m-405 -10 c-13 -2 -33 -2 -45 0 -13 2 -3 4 22 4 25 0 35 -2 23 -4z m505 0
c-10 -2 -28 -2 -40 0 -13 2 -5 4 17 4 22 1 32 -1 23 -4z m-585 -10 c-7 -2 -21
-2 -30 0 -10 3 -4 5 12 5 17 0 24 -2 18 -5z m650 0 c-7 -2 -21 -2 -30 0 -10 3
-4 5 12 5 17 0 24 -2 18 -5z m-710 -10 c-7 -2 -21 -2 -30 0 -10 3 -4 5 12 5
17 0 24 -2 18 -5z m770 0 c-7 -2 -19 -2 -25 0 -7 3 -2 5 12 5 14 0 19 -2 13
-5z m-830 -10 c-7 -2 -19 -2 -25 0 -7 3 -2 5 12 5 14 0 19 -2 13 -5z m880 0
c-7 -2 -19 -2 -25 0 -7 3 -2 5 12 5 14 0 19 -2 13 -5z m-930 -10 c-7 -2 -19
-2 -25 0 -7 3 -2 5 12 5 14 0 19 -2 13 -5z m974 1 c-3 -3 -12 -4 -19 -1 -8 3
-5 6 6 6 11 1 17 -2 13 -5z m-1020 -10 c-3 -3 -12 -4 -19 -1 -8 3 -5 6 6 6 11
1 17 -2 13 -5z m1060 0 c-3 -3 -12 -4 -19 -1 -8 3 -5 6 6 6 11 1 17 -2 13 -5z
m-1100 -10 c-3 -3 -12 -4 -19 -1 -8 3 -5 6 6 6 11 1 17 -2 13 -5z m1140 0 c-3
-3 -12 -4 -19 -1 -8 3 -5 6 6 6 11 1 17 -2 13 -5z m-1192 -14 c-11 -5 -27 -9
-35 -9 -9 0 -8 4 5 9 11 5 27 9 35 9 9 0 8 -4 -5 -9z m1250 0 c13 -5 14 -9 5
-9 -8 0 -24 4 -35 9 -13 5 -14 9 -5 9 8 0 24 -4 35 -9z m-1354 -31 c-30 -10
-56 -17 -58 -15 -5 5 77 34 97 34 8 1 -9 -8 -39 -19z m1479 -9 c18 -12 2 -12
-25 0 -13 6 -15 9 -5 9 8 0 22 -4 30 -9z m-1560 -19 c-8 -5 -26 -11 -40 -15
-21 -5 -20 -3 5 9 32 15 60 20 35 6z m1610 -1 c8 -5 11 -10 5 -10 -5 0 -17 5
-25 10 -8 5 -10 10 -5 10 6 0 17 -5 25 -10z m50 -20 c8 -5 11 -10 5 -10 -5 0
-17 5 -25 10 -8 5 -10 10 -5 10 6 0 17 -5 25 -10z m-1780 -30 c-30 -16 -59
-29 -65 -29 -5 0 15 13 45 29 30 16 60 29 65 29 6 0 -15 -13 -45 -29z m1860
-5 c25 -13 41 -24 35 -24 -5 0 -30 11 -55 24 -25 13 -40 24 -35 24 6 0 30 -11
55 -24z m-1945 -35 c-3 -5 -12 -10 -18 -10 -7 0 -6 4 3 10 19 12 23 12 15 0z
m2020 0 c3 -6 -1 -7 -9 -4 -18 7 -21 14 -7 14 6 0 13 -4 16 -10z m-2060 -18
c-6 -5 -53 -33 -105 -64 -52 -31 -135 -86 -184 -123 -48 -37 -85 -62 -82 -57
13 21 164 129 265 190 96 57 130 74 106 54z m2217 -75 l23 -19 -25 14 c-14 8
-51 30 -82 48 -32 17 -58 34 -58 37 0 7 115 -58 142 -80z m-974 66 c-10 -2
-26 -2 -35 0 -10 3 -2 5 17 5 19 0 27 -2 18 -5z m100 -10 c-10 -2 -28 -2 -40
0 -13 2 -5 4 17 4 22 1 32 -1 23 -4z m75 -10 c-7 -2 -21 -2 -30 0 -10 3 -4 5
12 5 17 0 24 -2 18 -5z m50 -10 c-7 -2 -19 -2 -25 0 -7 3 -2 5 12 5 14 0 19
-2 13 -5z m50 -10 c-7 -2 -19 -2 -25 0 -7 3 -2 5 12 5 14 0 19 -2 13 -5z m62
-13 c13 -5 14 -9 5 -9 -8 0 -24 4 -35 9 -13 5 -14 9 -5 9 8 0 24 -4 35 -9z
m89 -26 c26 -9 45 -18 43 -20 -2 -2 -28 5 -58 15 -30 11 -49 20 -43 20 6 1 32
-6 58 -15z m-1006 -11 c-15 -2 -42 -2 -60 0 -18 2 -6 4 27 4 33 0 48 -2 33 -4z
m1718 -89 c150 -116 330 -299 422 -428 54 -76 29 -52 -33 32 -81 108 -290 313
-415 406 -58 43 -107 81 -110 84 -13 16 64 -38 136 -94z m-1843 79 c-7 -2 -21
-2 -30 0 -10 3 -4 5 12 5 17 0 24 -2 18 -5z m184 1 c-3 -3 -12 -4 -19 -1 -8 3
-5 6 6 6 11 1 17 -2 13 -5z m-244 -11 c-7 -2 -19 -2 -25 0 -7 3 -2 5 12 5 14
0 19 -2 13 -5z m1277 -3 c8 -5 11 -10 5 -10 -5 0 -17 5 -25 10 -8 5 -10 10 -5
10 6 0 17 -5 25 -10z m-1323 -6 c-3 -3 -12 -4 -19 -1 -8 3 -5 6 6 6 11 1 17
-2 13 -5z m378 -25 c20 -18 40 -41 46 -53 6 -11 -1 -7 -15 11 -15 17 -39 41
-54 52 -15 11 -24 21 -20 21 4 0 23 -14 43 -31z m1015 1 c19 -11 31 -19 25
-19 -5 0 -26 8 -45 19 -19 11 -30 19 -25 19 6 0 26 -8 45 -19z m-1470 1 c-8
-5 -26 -11 -40 -15 -21 -5 -20 -3 5 9 32 15 60 20 35 6z m697 -33 c-3 -8 -6
-5 -6 6 -1 11 2 17 5 13 3 -3 4 -12 1 -19z m170 15 c-16 -4 -17 -35 -15 -506
l3 -502 27 -3 c22 -3 30 3 47 35 24 46 28 38 4 -12 -13 -27 -23 -35 -43 -35
-14 0 -31 5 -38 12 -9 9 -12 136 -12 508 0 273 3 500 7 503 3 4 13 6 22 6 13
-1 12 -2 -2 -6z m-947 -13 c-8 -5 -19 -10 -25 -10 -5 0 -3 5 5 10 8 5 20 10
25 10 6 0 3 -5 -5 -10z m1053 3 c-13 -2 -33 -2 -45 0 -13 2 -3 4 22 4 25 0 35
-2 23 -4z m70 -10 c-7 -2 -21 -2 -30 0 -10 3 -4 5 12 5 17 0 24 -2 18 -5z
m523 -9 c18 -14 18 -14 -6 -3 -31 14 -36 19 -24 19 6 0 19 -7 30 -16z m-1687
2 c-10 -9 -129 -66 -129 -61 0 6 111 64 124 65 5 0 7 -2 5 -4z m1224 -3 c-7
-2 -21 -2 -30 0 -10 3 -4 5 12 5 17 0 24 -2 18 -5z m44 -9 c-3 -3 -12 -4 -19
-1 -8 3 -5 6 6 6 11 1 17 -2 13 -5z m58 -14 c13 -5 14 -9 5 -9 -8 0 -24 4 -35
9 -13 5 -14 9 -5 9 8 0 24 -4 35 -9z m521 -66 c30 -19 54 -37 54 -39 0 -4
-143 79 -180 105 -35 24 76 -34 126 -66z m-1187 7 c0 -14 -1 -14 -6 -1 -3 8
-10 24 -15 35 -9 20 -9 20 6 1 9 -11 16 -27 15 -35z m731 39 c18 -12 2 -12
-25 0 -13 6 -15 9 -5 9 8 0 22 -4 30 -9z m-2057 -61 c-119 -106 -245 -251
-333 -384 -29 -44 -57 -84 -63 -90 -34 -34 97 158 167 245 64 78 266 283 273
276 3 -2 -17 -24 -44 -47z m527 37 c0 -2 -22 -18 -49 -35 -26 -17 -74 -58
-105 -90 -31 -33 -56 -56 -56 -52 0 13 114 121 160 151 46 31 50 33 50 26z
m1630 -12 c23 -9 39 -18 37 -20 -2 -3 -24 4 -48 15 -54 24 -45 27 11 5z m-797
-887 c19 -4 18 -4 -5 -6 l-28 -1 2 438 3 437 2 -432 3 -432 23 -4z m872 853
c3 -6 -1 -7 -9 -4 -18 7 -21 14 -7 14 6 0 13 -4 16 -10z m113 -56 c34 -19 62
-37 62 -40 0 -4 -150 74 -160 84 -11 12 39 -12 98 -44z m397 -89 c108 -95 247
-244 315 -340 27 -38 -13 5 -82 90 -83 101 -232 245 -325 314 -40 30 -73 56
-73 58 0 9 98 -64 165 -122z m-242 -8 c32 -21 57 -43 55 -48 -7 -20 -151 -172
-328 -344 -101 -99 -182 -177 -180 -173 3 4 116 119 253 256 136 138 247 254
247 260 0 5 -29 29 -65 52 -36 23 -65 44 -65 47 0 5 12 -2 83 -50z m-2192 -28
c-5 -13 -10 -19 -10 -12 -1 15 10 45 15 40 3 -2 0 -15 -5 -28z m1189 -334 l0
-335 -47 2 -48 1 43 4 42 4 0 330 c0 181 2 329 5 329 3 0 5 -151 5 -335z
m-1073 97 c49 -48 204 -201 346 -341 207 -204 255 -256 246 -267 -6 -8 -16
-14 -22 -14 -6 0 -3 6 7 13 19 14 -23 58 -504 527 -151 147 -200 206 -200 240
0 8 9 -4 20 -28 11 -24 57 -80 107 -130z m2272 85 l25 -32 -32 29 c-32 29 -32
29 -54 10 l-23 -19 19 23 c25 29 36 27 65 -11z m-194 -137 c-66 -66 -123 -120
-126 -120 -10 0 225 237 236 239 5 0 -44 -53 -110 -119z m828 30 c31 -52 11
-32 -27 28 -20 31 -27 45 -14 30 13 -15 32 -41 41 -58z m-585 44 c-28 -31
-433 -435 -441 -440 -7 -4 88 94 210 217 187 188 220 226 210 239 -11 13 -10
13 6 1 9 -8 16 -15 15 -17z m-2583 -53 c11 -5 -10 -6 -50 -3 -38 2 -72 6 -74
8 -8 8 105 2 124 -5z m-200 -35 c-41 -25 -91 -80 -140 -153 -32 -50 -47 -59
-16 -11 59 94 153 188 186 188 5 0 -8 -11 -30 -24z m265 -2 c0 -2 -9 0 -20 6
-11 6 -20 13 -20 16 0 2 9 0 20 -6 11 -6 20 -13 20 -16z m-650 -34 c-11 -22
-23 -40 -25 -40 -3 0 4 18 15 40 11 22 23 40 25 40 3 0 -4 -18 -15 -40z m3325
-26 c28 -37 54 -74 58 -83 9 -17 0 -7 -69 83 l-46 59 -352 -352 c-193 -193
-354 -351 -357 -351 -3 0 154 160 350 355 196 195 358 355 361 355 3 0 28 -30
55 -66z m531 -77 c31 -60 54 -110 52 -112 -1 -2 -33 56 -70 128 -38 73 -61
123 -53 112 9 -11 41 -69 71 -128z m-3140 76 c-5 -5 -56 45 -56 54 0 4 13 -6
30 -22 16 -16 28 -30 26 -32z m2812 -5 c33 -49 89 -146 79 -137 -10 8 -116
179 -112 179 2 0 17 -19 33 -42z m-1238 21 c0 8 2 12 5 9 3 -3 1 -16 -4 -29
-9 -21 -10 -22 -11 -4 -1 18 -2 17 -15 -5 -17 -30 -19 -21 -3 15 8 18 14 22
20 13 6 -10 8 -10 8 1z m-1323 -271 c103 -104 189 -192 191 -197 3 -8 -425
420 -438 437 -14 19 77 -69 247 -240z m-1011 200 c-9 -12 -16 -19 -16 -15 0
11 24 47 28 42 2 -2 -3 -14 -12 -27z m2280 -25 c-8 -15 -15 -25 -16 -21 0 12
23 58 27 54 3 -2 -2 -17 -11 -33z m372 -150 c-99 -98 -193 -194 -208 -213
l-28 -36 39 -44 39 -45 34 35 c18 19 46 46 62 60 16 13 1 -5 -34 -40 l-63 -65
-44 49 -44 49 19 26 c21 30 393 401 402 401 3 0 -76 -80 -174 -177z m-348 130
c-11 -17 -11 -17 -6 0 3 10 6 24 7 30 0 9 2 9 5 0 3 -7 0 -20 -6 -30z m-2344
-40 c-14 -26 -25 -45 -26 -41 0 12 43 98 48 94 2 -2 -8 -26 -22 -53z m3529
-35 c15 -27 25 -48 22 -48 -3 0 -21 28 -42 63 -20 34 -30 55 -22 47 8 -8 27
-36 42 -62z m-1239 25 c-8 -15 -15 -25 -16 -21 0 12 23 58 27 54 3 -2 -2 -17
-11 -33z m-2011 -23 c-9 -16 -18 -30 -21 -30 -2 0 2 14 11 30 9 17 18 30 21
30 2 0 -2 -13 -11 -30z m2034 -19 c-6 -18 -13 -30 -15 -28 -2 2 1 18 7 36 6
18 13 30 15 28 2 -2 -1 -18 -7 -36z m1427 -32 c19 -39 34 -73 32 -75 -2 -2
-21 30 -41 71 -20 41 -35 75 -32 75 3 0 21 -32 41 -71z m-1201 32 c-3 -6 -11
-11 -16 -11 -5 0 -4 6 3 14 14 16 24 13 13 -3z m-279 -28 c-8 -15 -15 -25 -16
-21 0 12 23 58 27 54 3 -2 -2 -17 -11 -33z m-2300 -10 c-8 -15 -15 -25 -16
-21 0 12 23 58 27 54 3 -2 -2 -17 -11 -33z m4054 -8 c0 -5 -5 -3 -10 5 -5 8
-10 20 -10 25 0 6 5 3 10 -5 5 -8 10 -19 10 -25z m-3769 2 c-10 -9 -11 -8 -5
6 3 10 9 15 12 12 3 -3 0 -11 -7 -18z m2179 -72 l-93 -94 -29 17 c-16 9 -37
26 -46 36 -9 11 3 5 28 -13 l45 -32 88 90 c49 50 91 91 94 91 3 0 -36 -43 -87
-95z m-139 48 c-12 -20 -14 -14 -5 12 4 9 9 14 11 11 3 -2 0 -13 -6 -23z
m1305 -24 c14 -28 24 -53 22 -55 -2 -2 -16 21 -31 51 -15 30 -25 55 -22 55 3
0 16 -23 31 -51z m-3375 -16 c-11 -21 -20 -35 -21 -31 0 12 33 78 38 74 2 -2
-6 -21 -17 -43z m3819 12 c0 -5 -5 -3 -10 5 -5 8 -10 20 -10 25 0 6 5 3 10 -5
5 -8 10 -19 10 -25z m-1769 -22 c-12 -20 -14 -14 -5 12 4 9 9 14 11 11 3 -2 0
-13 -6 -23z m-2342 -22 c-6 -18 -13 -30 -15 -28 -2 2 1 18 7 36 6 18 13 30 15
28 2 -2 -1 -18 -7 -36z m2816 -41 c-38 -38 -73 -70 -77 -70 -10 0 125 138 137
139 5 0 -22 -30 -60 -69z m1325 -4 c-1 -6 -7 4 -15 23 -8 18 -15 38 -15 45 1
6 7 -4 15 -23 8 -18 15 -38 15 -45z m-270 29 c0 -5 -5 -3 -10 5 -5 8 -10 20
-10 25 0 6 5 3 10 -5 5 -8 10 -19 10 -25z m-3616 -49 c-9 -26 -18 -45 -20 -43
-2 2 3 25 12 51 9 26 18 45 20 43 2 -2 -3 -25 -12 -51z m3480 -46 c3 -14 -5
-1 -19 29 -14 29 -25 56 -25 60 1 11 37 -63 44 -89z m160 30 c5 -17 4 -20 -2
-10 -5 8 -13 26 -16 40 -5 17 -4 20 2 10 5 -8 13 -26 16 -40z m-3925 -9 c-7
-23 -14 -39 -16 -37 -3 2 1 23 8 45 7 23 14 39 16 37 3 -2 -1 -23 -8 -45z
m2039 -38 c-10 -2 -28 -2 -40 0 -13 2 -5 4 17 4 22 1 32 -1 23 -4z m125 0
c-13 -2 -35 -2 -50 0 -16 2 -5 4 22 4 28 0 40 -2 28 -4z m2034 -15 c-3 -8 -6
-5 -6 6 -1 11 2 17 5 13 3 -3 4 -12 1 -19z m-2658 -74 c28 28 52 48 54 45 3
-2 -20 -26 -50 -53 l-54 -49 -65 64 c-35 35 -64 66 -64 70 0 4 29 -23 65 -60
l64 -66 50 49z m391 70 c-56 -17 -64 -17 -25 1 17 8 39 14 50 14 11 0 0 -7
-25 -15z m287 10 c-3 -3 -12 -4 -19 -1 -8 3 -5 6 6 6 11 1 17 -2 13 -5z
m-2240 -26 c-3 -8 -6 -5 -6 6 -1 11 2 17 5 13 3 -3 4 -12 1 -19z m2313 6 c23
-9 39 -18 37 -20 -2 -2 -25 5 -53 16 -27 10 -43 19 -37 20 7 0 31 -7 53 -16z
m1499 -24 c0 -10 -3 -8 -9 5 -12 27 -12 43 0 25 5 -8 9 -22 9 -30z m179 -40
c0 -8 -6 1 -13 20 -7 19 -13 42 -13 50 0 8 6 -1 13 -20 7 -19 13 -42 13 -50z
m-3724 36 c-3 -15 -8 -25 -11 -23 -2 3 -1 17 3 31 3 15 8 25 11 23 2 -3 1 -17
-3 -31z m1572 -9 c-65 -35 -166 -129 -191 -177 -8 -16 -18 -30 -21 -30 -14 0
33 67 84 118 52 53 152 122 177 122 6 0 -17 -15 -49 -33z m2391 11 c-3 -8 -6
-5 -6 6 -1 11 2 17 5 13 3 -3 4 -12 1 -19z m-4240 -20 c-3 -8 -6 -5 -6 6 -1
11 2 17 5 13 3 -3 4 -12 1 -19z m2492 -64 c52 -48 112 -133 126 -179 4 -11 -8
6 -26 39 -43 76 -106 146 -169 186 -55 35 -68 51 -18 23 17 -10 56 -41 87 -69z
m1758 44 c-3 -8 -6 -5 -6 6 -1 11 2 17 5 13 3 -3 4 -12 1 -19z m-4260 -20 c-3
-8 -6 -5 -6 6 -1 11 2 17 5 13 3 -3 4 -12 1 -19z m270 0 c-3 -8 -6 -5 -6 6 -1
11 2 17 5 13 3 -3 4 -12 1 -19z m2913 13 c0 -9 -56 -48 -107 -75 -54 -27 -37
-10 22 23 31 18 53 36 50 40 -3 5 1 12 7 14 20 8 28 8 28 -2z m-80 -31 c-19
-11 -39 -19 -45 -19 -5 0 6 8 25 19 19 11 40 19 45 19 6 0 -6 -8 -25 -19z
m917 -2 c-3 -8 -6 -5 -6 6 -1 11 2 17 5 13 3 -3 4 -12 1 -19z m250 -10 c-3 -7
-5 -2 -5 12 0 14 2 19 5 13 2 -7 2 -19 0 -25z m-4280 -20 c-3 -7 -5 -2 -5 12
0 14 2 19 5 13 2 -7 2 -19 0 -25z m270 -5 c-3 -10 -5 -4 -5 12 0 17 2 24 5 18
2 -7 2 -21 0 -30z m3600 15 c-3 -8 -6 -5 -6 6 -1 11 2 17 5 13 3 -3 4 -12 1
-19z m-857 -23 c-25 -13 -49 -24 -55 -24 -5 0 10 11 35 24 25 13 50 24 55 24
6 0 -10 -11 -35 -24z m1027 -7 c-3 -7 -5 -2 -5 12 0 14 2 19 5 13 2 -7 2 -19
0 -25z m250 -10 c-3 -7 -5 -2 -5 12 0 14 2 19 5 13 2 -7 2 -19 0 -25z m-410 0
c-3 -8 -6 -5 -6 6 -1 11 2 17 5 13 3 -3 4 -12 1 -19z m-3890 -20 c-3 -7 -5 -2
-5 12 0 14 2 19 5 13 2 -7 2 -19 0 -25z m2795 9 c-18 -21 14 -60 38 -47 10 5
22 10 27 10 4 -1 -3 -7 -17 -15 -27 -15 -42 -8 -62 28 -7 15 -7 22 3 28 20 12
23 11 11 -4z m193 -21 c-38 -18 -81 -36 -95 -40 -14 -3 0 5 30 19 30 14 69 31
85 39 17 8 35 15 40 15 6 -1 -21 -15 -60 -33z m-65 4 c-19 -11 -39 -19 -45
-19 -5 0 6 8 25 19 19 11 40 19 45 19 6 0 -6 -8 -25 -19z m1137 -12 c-3 -7 -5
-2 -5 12 0 14 2 19 5 13 2 -7 2 -19 0 -25z m-3774 -23 c4 -27 3 -35 -3 -25 -5
8 -10 28 -10 44 0 39 6 30 13 -19z m3614 13 c-3 -7 -5 -2 -5 12 0 14 2 19 5
13 2 -7 2 -19 0 -25z m410 0 c-3 -7 -5 -2 -5 12 0 14 2 19 5 13 2 -7 2 -19 0
-25z m-4320 -25 c-3 -10 -5 -4 -5 12 0 17 2 24 5 18 2 -7 2 -21 0 -30z m4080
-15 c-3 -7 -5 -2 -5 12 0 14 2 19 5 13 2 -7 2 -19 0 -25z m-160 -10 c-3 -7 -5
-2 -5 12 0 14 2 19 5 13 2 -7 2 -19 0 -25z m410 -15 c-3 -10 -5 -2 -5 17 0 19
2 27 5 18 2 -10 2 -26 0 -35z m-2134 30 c-18 -2 -48 -2 -65 0 -18 2 -4 4 32 4
36 0 50 -2 33 -4z m676 3 c-2 -2 -15 -9 -29 -15 -24 -11 -24 -11 -6 3 16 13
49 24 35 12z m-1213 -43 c-8 -15 -15 -25 -16 -21 0 12 23 58 27 54 3 -2 -2
-17 -11 -33z m419 27 c-27 -12 -43 -12 -25 0 8 5 22 9 30 9 10 0 8 -3 -5 -9z
m238 -26 c37 -25 97 -97 97 -117 0 -6 -13 10 -30 36 -17 27 -50 60 -77 77 -26
17 -43 30 -37 30 5 0 26 -12 47 -26z m-2326 -31 c-3 -10 -5 -2 -5 17 0 19 2
27 5 18 2 -10 2 -26 0 -35z m388 -37 c15 -10 43 -24 63 -32 32 -12 33 -13 7
-8 -16 3 -45 15 -63 26 -32 20 -82 77 -82 94 0 5 11 -7 24 -27 14 -20 37 -44
51 -53z m1607 48 c-18 -14 -46 -49 -62 -78 -17 -28 -30 -46 -30 -40 0 30 94
144 119 144 3 0 -9 -12 -27 -26z m1398 6 c421 0 539 3 543 13 3 7 6 5 6 -5 1
-17 -32 -18 -549 -18 -517 0 -550 1 -549 18 0 10 3 12 6 5 4 -10 122 -13 543
-13z m707 -27 c-3 -10 -5 -2 -5 17 0 19 2 27 5 18 2 -10 2 -26 0 -35z m250
-35 c-2 -13 -4 -3 -4 22 0 25 2 35 4 23 2 -13 2 -33 0 -45z m-1658 12 c0 -10
-3 -8 -9 5 -12 27 -12 43 0 25 5 -8 9 -22 9 -30z m-1052 -22 c-3 -8 -6 -5 -6
6 -1 11 2 17 5 13 3 -3 4 -12 1 -19z m-1650 -85 c-2 -21 -4 -6 -4 32 0 39 2
55 4 38 2 -18 2 -50 0 -70z m4243 37 c85 0 120 3 123 13 3 7 6 5 6 -5 1 -16
-12 -18 -129 -18 l-130 0 2 38 c1 36 1 36 5 5 l4 -33 119 0z m-1533 28 c-3 -8
-6 -5 -6 6 -1 11 2 17 5 13 3 -3 4 -12 1 -19z m-1070 -45 c-3 -10 -5 -2 -5 17
0 19 2 27 5 18 2 -10 2 -26 0 -35z m-399 30 c-137 -2 -359 -2 -495 0 -137 1
-25 2 247 2 272 0 384 -1 248 -2z m1479 -55 c-2 -13 -4 -5 -4 17 -1 22 1 32 4
23 2 -10 2 -28 0 -40z m-280 20 c-3 -8 -6 -5 -6 6 -1 11 2 17 5 13 3 -3 4 -12
1 -19z m-530 -30 c-3 -7 -5 -2 -5 12 0 14 2 19 5 13 2 -7 2 -19 0 -25z m2052
10 c-1 -17 -2 -19 -6 -6 -4 17 -41 18 -541 21 l-537 2 543 3 542 2 -1 -22z
m-1512 -75 c-2 -16 -4 -3 -4 27 0 30 2 43 4 28 2 -16 2 -40 0 -55z m-550 10
c-3 -10 -5 -4 -5 12 0 17 2 24 5 18 2 -7 2 -21 0 -30z m2060 5 c-3 -7 -5 -2
-5 12 0 14 2 19 5 13 2 -7 2 -19 0 -25z m-1240 -70 c-2 -13 -4 -3 -4 22 0 25
2 35 4 23 2 -13 2 -33 0 -45z m-1080 0 c-2 -13 -4 -5 -4 17 -1 22 1 32 4 23 2
-10 2 -28 0 -40z m2323 42 c0 -7 -186 -9 -542 -8 l-543 3 540 5 c297 3 541 6
543 8 1 1 2 -2 2 -8z m-2053 -32 c-3 -8 -6 -5 -6 6 -1 11 2 17 5 13 3 -3 4
-12 1 -19z m518 -38 c-25 -48 -84 -109 -128 -131 -21 -11 -41 -19 -43 -16 -2
2 14 12 37 22 48 22 113 93 131 142 7 19 14 30 16 24 2 -5 -4 -24 -13 -41z
m-982 33 c-24 -2 -62 -2 -85 0 -24 2 -5 4 42 4 47 0 66 -2 43 -4z m-1446 -100
c-2 -21 -4 -6 -4 32 0 39 2 55 4 38 2 -18 2 -50 0 -70z m526 90 c-7 -2 -19 -2
-25 0 -7 3 -2 5 12 5 14 0 19 -2 13 -5z m3780 0 c-34 -2 -93 -2 -130 0 -37 2
-9 3 62 3 72 0 102 -1 68 -3z m-3833 -10 c-8 -3 -27 -12 -42 -20 -16 -7 -28
-11 -28 -9 0 9 54 35 70 35 13 -1 13 -1 0 -6z m1514 -93 c22 -24 30 -36 16
-25 -42 34 -89 97 -89 120 0 6 7 -3 16 -20 8 -16 34 -50 57 -75z m-325 30 c0
-9 -4 -8 -9 5 -5 11 -9 27 -9 35 0 9 4 8 9 -5 5 -11 9 -27 9 -35z m1048 28
c-3 -8 -6 -5 -6 6 -1 11 2 17 5 13 3 -3 4 -12 1 -19z m1650 -60 c-2 -18 -4 -6
-4 27 0 33 2 48 4 33 2 -15 2 -42 0 -60z m-3997 25 c-18 -20 -38 -50 -46 -67
-7 -17 -13 -25 -14 -18 0 21 19 54 53 90 42 44 47 41 7 -5z m3747 -40 c-2 -16
-4 -3 -4 27 0 30 2 43 4 28 2 -16 2 -40 0 -55z m-2312 -169 c33 -33 85 -75
115 -93 30 -18 47 -30 37 -27 -38 12 -128 79 -174 130 -44 47 -113 161 -113
182 0 5 17 -22 38 -61 20 -38 64 -97 97 -131z m881 159 c-8 -15 -15 -25 -16
-21 0 12 23 58 27 54 3 -2 -2 -17 -11 -33z m1084 30 c-503 -7 -900 -7 -900 0
0 4 246 6 548 5 301 -2 459 -4 352 -5z m-844 -61 c-6 -5 -56 21 -56 29 0 5 13
0 29 -9 16 -9 28 -18 27 -20z m-2909 -34 c-2 -13 -4 -5 -4 17 -1 22 1 32 4 23
2 -10 2 -28 0 -40z m2048 34 c-3 -3 -11 0 -18 7 -9 10 -8 11 6 5 10 -3 15 -9
12 -12z m1882 -39 c-3 -10 -5 -2 -5 17 0 19 2 27 5 18 2 -10 2 -26 0 -35z
m410 -5 c-2 -13 -4 -5 -4 17 -1 22 1 32 4 23 2 -10 2 -28 0 -40z m-2218 26
c10 -9 -35 -3 -49 6 -11 8 -7 9 15 4 17 -4 32 -8 34 -10z m516 -14 c-22 -43
-127 -152 -167 -173 -32 -17 -32 -17 -8 0 52 38 122 108 152 155 35 54 46 63
23 18z m218 20 c-12 -5 -26 -17 -32 -27 -6 -10 -11 -15 -11 -10 0 19 27 47 45
46 19 0 19 -1 -2 -9z m97 0 c8 -5 11 -10 5 -10 -5 0 -17 5 -25 10 -8 5 -10 10
-5 10 6 0 17 -5 25 -10z m1137 -37 c-3 -10 -5 -2 -5 17 0 19 2 27 5 18 2 -10
2 -26 0 -35z m-1864 30 c-7 -2 -19 -2 -25 0 -7 3 -2 5 12 5 14 0 19 -2 13 -5z
m707 -13 c19 -11 31 -19 25 -19 -5 0 -26 8 -45 19 -19 11 -30 19 -25 19 6 0
26 -8 45 -19z m-2643 -37 c-3 -10 -5 -2 -5 17 0 19 2 27 5 18 2 -10 2 -26 0
-35z m2713 37 c8 -5 11 -10 5 -10 -5 0 -17 5 -25 10 -8 5 -10 10 -5 10 6 0 17
-5 25 -10z m50 -20 c8 -5 11 -10 5 -10 -5 0 -17 5 -25 10 -8 5 -10 10 -5 10 6
0 17 -5 25 -10z m-20 -25 c25 -13 41 -24 35 -24 -5 0 -30 11 -55 24 -25 13
-40 24 -35 24 6 0 30 -11 55 -24z m-3023 -22 c-3 -10 -5 -4 -5 12 0 17 2 24 5
18 2 -7 2 -21 0 -30z m3559 -693 c5 0 24 17 42 37 l34 38 -32 -42 c-17 -24
-37 -43 -43 -43 -11 0 -613 592 -702 690 -27 30 117 -110 321 -312 204 -203
374 -368 380 -368z m-456 715 c14 -8 21 -14 15 -14 -5 0 -21 6 -35 14 -14 8
-20 14 -15 14 6 0 21 -6 35 -14z m807 -17 c-3 -7 -5 -2 -5 12 0 14 2 19 5 13
2 -7 2 -19 0 -25z m160 -10 c-3 -7 -5 -2 -5 12 0 14 2 19 5 13 2 -7 2 -19 0
-25z m250 -5 c-3 -10 -5 -4 -5 12 0 17 2 24 5 18 2 -7 2 -21 0 -30z m-4040
-45 c-2 -13 -4 -3 -4 22 0 25 2 35 4 23 2 -13 2 -33 0 -45z m2897 41 c30 -24
34 -39 9 -39 -15 0 -15 2 -4 9 11 7 7 14 -20 30 -19 12 -29 21 -23 21 6 0 23
-9 38 -21z m-74 1 c8 -5 11 -10 5 -10 -5 0 -17 5 -25 10 -8 5 -10 10 -5 10 6
0 17 -5 25 -10z m-1560 -4 c0 -5 -54 -60 -76 -75 -10 -8 1 6 26 32 42 45 50
52 50 43z m111 -111 c25 -32 21 -29 -15 10 -26 28 -56 64 -68 80 -25 37 37
-31 83 -90z m2246 83 c-3 -7 -5 -2 -5 12 0 14 2 19 5 13 2 -7 2 -19 0 -25z
m-747 12 c8 -5 11 -10 5 -10 -5 0 -17 5 -25 10 -8 5 -10 10 -5 10 6 0 17 -5
25 -10z m907 -22 c-3 -7 -5 -2 -5 12 0 14 2 19 5 13 2 -7 2 -19 0 -25z m-4050
-10 c-3 -7 -5 -2 -5 12 0 14 2 19 5 13 2 -7 2 -19 0 -25z m4300 0 c-3 -7 -5
-2 -5 12 0 14 2 19 5 13 2 -7 2 -19 0 -25z m-420 -20 c-3 -8 -6 -5 -6 6 -1 11
2 17 5 13 3 -3 4 -12 1 -19z m-1029 -122 c81 -74 232 -221 337 -328 l190 -193
-230 226 c-127 124 -278 269 -337 322 l-106 97 -32 -40 -33 -41 23 -25 c13
-13 19 -24 14 -24 -5 0 -17 12 -27 25 -17 24 -17 26 15 70 18 24 34 44 36 45
2 0 69 -60 150 -134z m1189 112 c-3 -8 -6 -5 -6 6 -1 11 2 17 5 13 3 -3 4 -12
1 -19z m-4030 -20 c-3 -7 -5 -2 -5 12 0 14 2 19 5 13 2 -7 2 -19 0 -25z m270
-5 c-3 -10 -5 -4 -5 12 0 17 2 24 5 18 2 -7 2 -21 0 -30z m4010 5 c-3 -7 -5
-2 -5 12 0 14 2 19 5 13 2 -7 2 -19 0 -25z m-2847 -3 c0 -2 -10 -10 -22 -16
-21 -11 -22 -11 -9 4 13 16 31 23 31 12z m2587 -17 c-3 -8 -6 -5 -6 6 -1 11 2
17 5 13 3 -3 4 -12 1 -19z m-1622 3 c-12 -12 -112 -51 -128 -51 -7 1 20 14 58
29 82 34 82 34 70 22z m-2388 -23 c-3 -8 -6 -5 -6 6 -1 11 2 17 5 13 3 -3 4
-12 1 -19z m3833 -23 c-16 -47 -23 -40 -8 8 6 20 13 35 16 33 2 -3 -1 -21 -8
-41z m427 23 c-3 -8 -6 -5 -6 6 -1 11 2 17 5 13 3 -3 4 -12 1 -19z m-3990 -10
c-3 -8 -6 -5 -6 6 -1 11 2 17 5 13 3 -3 4 -12 1 -19z m1108 4 c-5 -4 -97 -96
-203 -203 -106 -108 -191 -192 -190 -188 5 15 383 397 393 398 7 0 7 -2 0 -7z
m2614 -41 c-7 -23 -14 -39 -16 -37 -3 2 1 23 8 45 7 23 14 39 16 37 3 -2 -1
-23 -8 -45z m-1980 23 c10 -9 -35 -3 -49 6 -11 8 -7 9 15 4 17 -4 32 -8 34
-10z m-1990 -44 c0 -9 -4 -8 -9 5 -5 11 -9 27 -9 35 0 9 4 8 9 -5 5 -11 9 -27
9 -35z m1631 47 c0 -1 -25 -27 -55 -57 -30 -30 -55 -52 -55 -48 0 6 101 108
107 108 2 0 3 -1 3 -3z m2594 -31 c-3 -15 -8 -25 -11 -23 -2 3 -1 17 3 31 3
15 8 25 11 23 2 -3 1 -17 -3 -31z m-3955 -26 c0 -9 -4 -8 -9 5 -5 11 -9 27 -9
35 0 9 4 8 9 -5 5 -11 9 -27 9 -35z m1764 43 c-7 -2 -19 -2 -25 0 -7 3 -2 5
12 5 14 0 19 -2 13 -5z m180 0 c-7 -2 -21 -2 -30 0 -10 3 -4 5 12 5 17 0 24
-2 18 -5z m-80 -10 c-13 -2 -35 -2 -50 0 -16 2 -5 4 22 4 28 0 40 -2 28 -4z
m548 -57 c59 -58 103 -106 98 -106 -2 0 -36 32 -74 70 -38 39 -67 70 -64 70 3
0 21 -15 40 -34z m1098 -5 c-6 -18 -13 -30 -15 -28 -2 2 1 18 7 36 6 18 13 30
15 28 2 -2 -1 -18 -7 -36z m-1291 0 c12 -11 22 -23 22 -27 0 -4 -11 3 -25 16
l-25 23 -23 -21 c-13 -12 -27 -22 -31 -22 -4 0 6 11 21 25 34 29 32 29 61 6z
m-2194 -41 c5 -17 4 -20 -2 -10 -5 8 -13 26 -16 40 -5 17 -4 20 2 10 5 -8 13
-26 16 -40z m3647 23 c-12 -20 -14 -14 -5 12 4 9 9 14 11 11 3 -2 0 -13 -6
-23z m249 -30 c-11 -17 -11 -17 -6 0 3 10 6 24 7 30 0 9 2 9 5 0 3 -7 0 -20
-6 -30z m-2696 6 c-10 -11 -135 -136 -277 -277 -168 -166 -266 -271 -278 -297
-10 -22 -19 -34 -19 -27 0 7 5 23 11 35 10 20 568 587 578 587 2 0 -4 -9 -15
-21z m861 1 c-3 -5 -12 -10 -18 -10 -7 0 -24 -7 -39 -14 -16 -8 -28 -11 -28
-6 0 6 54 31 88 39 2 1 0 -3 -3 -9z m588 -399 c152 -152 276 -280 274 -286 -4
-13 -124 -103 -162 -121 -17 -8 -22 -9 -11 -2 85 59 160 115 163 123 3 9 -478
493 -619 623 -31 28 -60 58 -64 65 -13 21 132 -118 419 -402z m-2904 354 c0
-5 -4 -3 -9 5 -5 8 -9 22 -9 30 0 16 17 -16 18 -35z m3677 -52 c-25 -49 -53
-98 -61 -109 -8 -10 11 31 42 93 32 61 60 110 61 108 2 -2 -17 -43 -42 -92z
m205 70 c-12 -20 -14 -14 -5 12 4 9 9 14 11 11 3 -2 0 -13 -6 -23z m-1554 -5
c-3 -8 -6 -5 -6 6 -1 11 2 17 5 13 3 -3 4 -12 1 -19z m-1912 -269 c20 -28 31
-48 25 -44 -27 17 -181 284 -180 312 0 5 27 -43 59 -104 32 -62 75 -136 96
-164z m1952 239 c-3 -7 -5 -2 -5 12 0 14 2 19 5 13 2 -7 2 -19 0 -25z m1758
-23 c-10 -25 -20 -44 -22 -42 -2 2 5 25 14 50 9 25 19 44 21 42 2 -2 -4 -24
-13 -50z m-2107 38 c-21 -2 -55 -2 -75 0 -21 2 -4 4 37 4 41 0 58 -2 38 -4z
m59 -70 c-2 -16 -4 -5 -4 22 0 28 2 40 4 28 2 -13 2 -35 0 -50z m272 17 c0 -9
-4 -8 -9 5 -5 11 -9 27 -9 35 0 9 4 8 9 -5 5 -11 9 -27 9 -35z m1502 3 c-11
-21 -20 -35 -21 -31 0 12 33 78 38 74 2 -2 -6 -21 -17 -43z m-3831 2 c0 -5 -5
-3 -10 5 -5 8 -10 20 -10 25 0 6 5 3 10 -5 5 -8 10 -19 10 -25z m2748 10 c-3
-3 -9 2 -12 12 -6 14 -5 15 5 6 7 -7 10 -15 7 -18z m-391 -27 c-3 -7 -5 -2 -5
12 0 14 2 19 5 13 2 -7 2 -19 0 -25z m-450 -596 c-1 -114 -2 -20 -2 208 0 228
1 322 2 207 2 -114 2 -300 0 -415z m1243 228 c7 -14 -379 371 -390 388 -2 4
82 -78 189 -183 106 -104 196 -197 201 -205z m-3130 335 c0 -5 -5 -3 -10 5 -5
8 -10 20 -10 25 0 6 5 3 10 -5 5 -8 10 -19 10 -25z m2317 3 c-3 -8 -6 -5 -6 6
-1 11 2 17 5 13 3 -3 4 -12 1 -19z m-120 -395 c-1 -76 -3 -14 -3 137 0 151 2
213 3 138 2 -76 2 -200 0 -275z m150 375 c-3 -7 -5 -2 -5 12 0 14 2 19 5 13 2
-7 2 -19 0 -25z m1443 14 c0 -5 -7 -17 -15 -28 -14 -18 -14 -17 -4 9 12 27 19
34 19 19z m251 -39 c-11 -21 -20 -35 -21 -31 0 12 33 78 38 74 2 -2 -6 -21
-17 -43z m-3987 -70 c25 -51 44 -93 41 -93 -5 0 -95 176 -95 186 0 13 7 1 54
-93z m1993 -205 c-1 -57 -3 -11 -3 102 0 113 2 159 3 103 2 -57 2 -149 0 -205z
m280 280 c-3 -8 -6 -5 -6 6 -1 11 2 17 5 13 3 -3 4 -12 1 -19z m30 -30 c-3 -7
-5 -2 -5 12 0 14 2 19 5 13 2 -7 2 -19 0 -25z m-20 -10 c-3 -8 -6 -5 -6 6 -1
11 2 17 5 13 3 -3 4 -12 1 -19z m1398 -25 c-125 -217 -336 -452 -540 -603
-103 -76 -255 -169 -255 -157 0 2 37 26 83 52 105 61 242 163 334 249 128 119
284 314 368 459 15 26 29 47 32 47 3 0 -7 -21 -22 -47z m-1370 -25 c-7 -29 -9
-30 -16 -13 -11 28 -10 56 1 30 8 -19 9 -18 9 4 1 13 4 22 7 18 3 -3 3 -21 -1
-39z m1178 11 c-10 -17 -24 -36 -32 -42 -8 -7 -2 7 14 31 32 49 45 57 18 11z
m477 23 c0 -5 -7 -17 -15 -28 -14 -18 -14 -17 -4 9 12 27 19 34 19 19z m-3186
-73 c-55 -58 -153 -139 -167 -139 -7 0 2 9 20 20 18 10 65 52 105 92 76 76
111 98 42 27z m1546 -1 c0 -21 -3 -29 -10 -22 -5 5 -7 19 -4 32 9 31 14 27 14
-10z m1602 0 c-7 -7 -12 -8 -12 -2 0 14 12 26 19 19 2 -3 -1 -11 -7 -17z m-31
-55 c-11 -21 -27 -47 -36 -58 -16 -19 -17 -19 -3 5 8 14 23 40 32 58 9 17 19
32 21 32 3 0 -3 -17 -14 -37z m-3793 -77 c13 -23 15 -30 5 -17 -10 13 -28 43
-41 65 -13 23 -15 30 -5 17 10 -13 28 -43 41 -65z m276 69 c3 -8 27 -29 53
-45 26 -17 42 -30 36 -30 -12 0 -83 51 -102 73 -7 9 -9 17 -3 17 5 0 12 -7 16
-15z m2856 -80 c13 -14 21 -25 18 -25 -3 0 -17 11 -32 25 -15 14 -23 25 -18
25 5 0 19 -11 32 -25z m-2723 -1 c-3 -3 -12 -4 -19 -1 -8 3 -5 6 6 6 11 1 17
-2 13 -5z m80 0 c-3 -3 -12 -4 -19 -1 -8 3 -5 6 6 6 11 1 17 -2 13 -5z m3236
-25 c-52 -89 -273 -357 -273 -331 0 4 18 26 41 47 48 46 149 175 204 258 40
61 58 78 28 26z m-3628 -104 c32 -44 71 -95 88 -112 17 -18 27 -33 23 -33 -5
0 -14 6 -20 13 -25 31 -153 203 -161 217 -15 29 11 -4 70 -85z m3079 76 c16
-18 16 -20 -16 -41 l-33 -22 27 24 c26 22 27 25 11 41 -10 9 -15 17 -12 17 3
0 14 -9 23 -19z m-94 -64 c13 -5 13 -5 0 -6 -15 0 -90 63 -90 76 0 4 17 -9 38
-29 20 -19 44 -38 52 -41z m-2397 -112 c3 -36 2 -52 -3 -40 -8 19 -14 113 -6
104 2 -2 6 -31 9 -64z m1354 -32 c-3 -10 -5 -4 -5 12 0 17 2 24 5 18 2 -7 2
-21 0 -30z m-1544 -283 c31 -23 57 -44 57 -47 0 -15 -112 80 -215 182 -120
119 -120 119 -11 14 61 -58 137 -125 169 -149z m279 152 c17 -15 54 -43 83
-62 86 -56 93 -63 40 -34 -89 48 -205 154 -205 187 0 6 11 -7 25 -28 14 -20
40 -49 57 -63z m2008 23 c0 -2 -22 -16 -50 -30 -27 -14 -50 -23 -50 -20 0 2
21 16 48 29 53 28 52 28 52 21z m653 -10 c-3 -9 -8 -14 -10 -11 -3 3 -2 9 2
15 9 16 15 13 8 -4z m-63 -60 c-24 -25 -46 -45 -49 -45 -3 0 15 20 39 45 24
25 46 45 49 45 3 0 -15 -20 -39 -45z m-730 -5 c-19 -11 -39 -19 -45 -19 -5 0
6 8 25 19 19 11 40 19 45 19 6 0 -6 -8 -25 -19z m-928 -52 c-8 -8 -9 -4 -5 13
4 13 8 18 11 10 2 -7 -1 -18 -6 -23z m165 -371 c-1 -73 -3 -10 -3 138 0 149 2
208 3 132 2 -76 2 -198 0 -270z m683 388 c-14 -8 -29 -14 -35 -14 -5 0 1 6 15
14 14 8 30 14 35 14 6 0 -1 -6 -15 -14z m-533 -17 c-3 -8 -6 -5 -6 6 -1 11 2
17 5 13 3 -3 4 -12 1 -19z m1272 -4 c-16 -19 -200 -152 -254 -184 -61 -36 -30
-10 65 53 47 31 110 77 140 101 60 48 69 54 49 30z m-844 -19 c-16 -8 -37 -14
-45 -14 -8 0 1 7 20 14 46 18 64 17 25 0z m-1480 -5 c3 -6 -1 -7 -9 -4 -18 7
-21 14 -7 14 6 0 13 -4 16 -10z m725 5 c0 -10 -74 -86 -94 -97 -11 -6 5 14 35
44 58 60 59 61 59 53z m327 -17 c-3 -8 -6 -5 -6 6 -1 11 2 17 5 13 3 -3 4 -12
1 -19z m-987 -18 c19 -11 31 -19 25 -19 -5 0 -26 8 -45 19 -19 11 -30 19 -25
19 6 0 26 -8 45 -19z m1317 4 c-3 -3 -12 -4 -19 -1 -8 3 -5 6 6 6 11 1 17 -2
13 -5z m-330 -26 c-3 -8 -6 -5 -6 6 -1 11 2 17 5 13 3 -3 4 -12 1 -19z m290
16 c-3 -3 -12 -4 -19 -1 -8 3 -5 6 6 6 11 1 17 -2 13 -5z m453 2 c0 -2 -7 -7
-16 -10 -8 -3 -12 -2 -9 4 6 10 25 14 25 6z m-493 -12 c-3 -3 -12 -4 -19 -1
-8 3 -5 6 6 6 11 1 17 -2 13 -5z m-1167 -14 c8 -5 11 -10 5 -10 -5 0 -17 5
-25 10 -8 5 -10 10 -5 10 6 0 17 -5 25 -10z m1123 3 c-7 -2 -19 -2 -25 0 -7 3
-2 5 12 5 14 0 19 -2 13 -5z m467 -13 c-19 -11 -39 -19 -45 -19 -5 0 6 8 25
19 19 11 40 19 45 19 6 0 -6 -8 -25 -19z m-517 3 c-7 -2 -21 -2 -30 0 -10 3
-4 5 12 5 17 0 24 -2 18 -5z m-1533 -70 c0 -7 -35 16 -65 42 -23 20 -18 19 18
-6 26 -18 47 -34 47 -36z m540 45 c10 -6 7 -7 -10 -2 -14 3 -32 11 -40 16 -10
6 -7 7 10 2 14 -3 32 -11 40 -16z m928 15 c-10 -2 -26 -2 -35 0 -10 3 -2 5 17
5 19 0 27 -2 18 -5z m502 -27 c-14 -7 -36 -16 -50 -20 -14 -3 -7 3 15 13 45
22 73 27 35 7z m-1365 -6 c13 -5 14 -9 5 -9 -8 0 -24 4 -35 9 -13 5 -14 9 -5
9 8 0 24 -4 35 -9z m320 0 c-3 -5 -12 -10 -18 -10 -7 0 -6 4 3 10 19 12 23 12
15 0z m-268 -16 c-3 -3 -12 -4 -19 -1 -8 3 -5 6 6 6 11 1 17 -2 13 -5z m61
-11 c-10 -2 -26 -2 -35 0 -10 3 -2 5 17 5 19 0 27 -2 18 -5z m139 1 c-3 -3
-12 -4 -19 -1 -8 3 -5 6 6 6 11 1 17 -2 13 -5z m-744 -64 c31 -17 57 -34 57
-37 0 -7 -115 58 -142 80 l-23 19 25 -14 c14 -8 51 -30 83 -48z m695 53 c-10
-2 -28 -2 -40 0 -13 2 -5 4 17 4 22 1 32 -1 23 -4z m1037 -3 c-27 -12 -43 -12
-25 0 8 5 22 9 30 9 10 0 8 -3 -5 -9z m-60 -20 c-11 -5 -27 -9 -35 -9 -9 0 -8
4 5 9 11 5 27 9 35 9 9 0 8 -4 -5 -9z m-58 -16 c-3 -3 -12 -4 -19 -1 -8 3 -5
6 6 6 11 1 17 -2 13 -5z m623 1 c0 -2 -13 -11 -30 -20 -38 -19 -40 -11 -2 9
31 17 32 18 32 11z m-680 -15 c-14 -4 -34 -8 -45 -8 -16 0 -15 2 5 8 14 4 34
8 45 8 16 0 15 -2 -5 -8z m-77 -17 c-7 -2 -19 -2 -25 0 -7 3 -2 5 12 5 14 0
19 -2 13 -5z m-50 -10 c-7 -2 -21 -2 -30 0 -10 3 -4 5 12 5 17 0 24 -2 18 -5z
m737 2 c0 -6 -97 -55 -107 -55 -4 1 17 14 47 30 61 32 60 32 60 25z m-802 -12
c-10 -2 -26 -2 -35 0 -10 3 -2 5 17 5 19 0 27 -2 18 -5z m-1249 -29 c14 -12
-19 -1 -35 12 -18 14 -18 14 6 3 14 -6 27 -13 29 -15z m1164 19 c-22 -4 -23
-8 -23 -123 l0 -119 28 -4 c26 -5 26 -5 -3 -3 l-30 1 -3 128 -3 127 28 -1 c24
-2 25 -2 6 -6z m-1128 -33 c3 -5 2 -10 -4 -10 -5 0 -13 5 -16 10 -3 6 -2 10 4
10 5 0 13 -4 16 -10z m1890 -10 c-3 -5 -12 -10 -18 -10 -7 0 -6 4 3 10 19 12
23 12 15 0z m-1835 -15 c14 -8 21 -14 15 -14 -5 0 -21 6 -35 14 -14 8 -20 14
-15 14 6 0 21 -6 35 -14z m1780 -10 c-14 -8 -29 -14 -35 -14 -5 0 1 6 15 14
14 8 30 14 35 14 6 0 -1 -6 -15 -14z m-1720 -15 c8 -5 11 -10 5 -10 -5 0 -17
5 -25 10 -8 5 -10 10 -5 10 6 0 17 -5 25 -10z m1660 -10 c-8 -5 -19 -10 -25
-10 -5 0 -3 5 5 10 8 5 20 10 25 10 6 0 3 -5 -5 -10z m-1610 -10 c8 -5 11 -10
5 -10 -5 0 -17 5 -25 10 -8 5 -10 10 -5 10 6 0 17 -5 25 -10z m1560 -10 c-8
-5 -19 -10 -25 -10 -5 0 -3 5 5 10 8 5 20 10 25 10 6 0 3 -5 -5 -10z m-1505
-10 c13 -6 15 -9 5 -9 -8 0 -22 4 -30 9 -18 12 -2 12 25 0z m1455 -10 c-8 -5
-22 -9 -30 -9 -10 0 -8 3 5 9 27 12 43 12 25 0z m-1395 -10 c13 -6 15 -9 5 -9
-8 0 -22 4 -30 9 -18 12 -2 12 25 0z m1320 -15 c-16 -8 -37 -14 -45 -14 -8 0
1 7 20 14 46 18 64 17 25 0z m-1250 -5 c13 -5 14 -9 5 -9 -8 0 -24 4 -35 9
-13 5 -14 9 -5 9 8 0 24 -4 35 -9z m52 -16 c-3 -3 -12 -4 -19 -1 -8 3 -5 6 6
6 11 1 17 -2 13 -5z m1130 0 c-3 -3 -12 -4 -19 -1 -8 3 -5 6 6 6 11 1 17 -2
13 -5z m-1084 -11 c-7 -2 -19 -2 -25 0 -7 3 -2 5 12 5 14 0 19 -2 13 -5z
m1044 1 c-3 -3 -12 -4 -19 -1 -8 3 -5 6 6 6 11 1 17 -2 13 -5z m-994 -11 c-7
-2 -19 -2 -25 0 -7 3 -2 5 12 5 14 0 19 -2 13 -5z m942 -3 c-11 -5 -29 -8 -40
-8 -16 0 -15 2 5 8 34 11 60 11 35 0z m-892 -7 c-7 -2 -19 -2 -25 0 -7 3 -2 5
12 5 14 0 19 -2 13 -5z m60 -10 c-7 -2 -21 -2 -30 0 -10 3 -4 5 12 5 17 0 24
-2 18 -5z m760 0 c-7 -2 -21 -2 -30 0 -10 3 -4 5 12 5 17 0 24 -2 18 -5z
m-685 -10 c-10 -2 -26 -2 -35 0 -10 3 -2 5 17 5 19 0 27 -2 18 -5z m625 0 c-7
-2 -21 -2 -30 0 -10 3 -4 5 12 5 17 0 24 -2 18 -5z m-530 -10 c-13 -2 -33 -2
-45 0 -13 2 -3 4 22 4 25 0 35 -2 23 -4z m172 -3 c-3 -5 -32 -9 -63 -8 l-57 1
60 7 c33 4 61 7 63 8 2 1 0 -2 -3 -8z m288 3 c-13 -2 -33 -2 -45 0 -13 2 -3 4
22 4 25 0 35 -2 23 -4z m-1990 -170 c-7 -2 -19 -2 -25 0 -7 3 -2 5 12 5 14 0
19 -2 13 -5z m3352 0 c-16 -3 -34 -9 -39 -14 -6 -5 -14 -9 -20 -9 -5 0 -1 7
10 15 10 8 33 14 49 13 l30 -1 -30 -4z m-3413 -18 c-12 -9 -26 -30 -31 -48 -6
-23 -9 -26 -10 -11 -1 24 34 74 52 74 6 0 2 -7 -11 -15z m109 -2 c13 -17 13
-17 -6 -3 -11 8 -22 16 -24 17 -2 2 0 3 6 3 6 0 17 -8 24 -17z m782 10 c-100
-2 -266 -2 -370 0 -103 1 -21 2 182 2 204 0 288 -1 188 -2z m250 0 c-7 -2 -19
-2 -25 0 -7 3 -2 5 12 5 14 0 19 -2 13 -5z m704 1 c-3 -3 -12 -4 -19 -1 -8 3
-5 6 6 6 11 1 17 -2 13 -5z m240 0 c-3 -3 -12 -4 -19 -1 -8 3 -5 6 6 6 11 1
17 -2 13 -5z m240 0 c-3 -3 -12 -4 -19 -1 -8 3 -5 6 6 6 11 1 17 -2 13 -5z
m40 0 c-3 -3 -12 -4 -19 -1 -8 3 -5 6 6 6 11 1 17 -2 13 -5z m40 0 c-3 -3 -12
-4 -19 -1 -8 3 -5 6 6 6 11 1 17 -2 13 -5z m400 0 c-3 -3 -12 -4 -19 -1 -8 3
-5 6 6 6 11 1 17 -2 13 -5z m40 0 c-3 -3 -12 -4 -19 -1 -8 3 -5 6 6 6 11 1 17
-2 13 -5z m40 0 c-3 -3 -12 -4 -19 -1 -8 3 -5 6 6 6 11 1 17 -2 13 -5z m40 0
c-3 -3 -12 -4 -19 -1 -8 3 -5 6 6 6 11 1 17 -2 13 -5z m223 -14 c11 -11 20
-26 20 -32 0 -7 -6 -4 -12 7 -15 28 -13 26 -50 35 -31 8 -32 8 -5 9 15 1 36
-8 47 -19z m340 -20 c6 -16 10 -37 7 -47 -3 -13 -5 -10 -6 8 0 15 -10 38 -22
53 -14 18 -16 24 -6 20 9 -3 20 -18 27 -34z m-3173 12 c-20 -22 -22 -72 -4
-92 10 -12 9 -12 -5 -1 -23 17 -23 69 -1 93 9 10 18 18 21 18 3 0 -2 -8 -11
-18z m3021 -27 c-10 -21 -8 -30 9 -53 11 -15 35 -32 54 -39 25 -9 28 -12 12
-12 -25 -1 -79 41 -88 69 -3 11 -1 28 5 40 15 29 22 25 8 -5z m-163 -44 c-3
-12 -16 -26 -28 -32 -22 -11 -22 -11 1 10 12 12 22 29 22 38 0 9 3 14 6 10 3
-3 3 -15 -1 -26z m-3045 5 c0 -7 -12 -25 -26 -40 -37 -36 -73 -34 -110 7 l-29
32 31 -27 c16 -16 41 -28 54 -28 26 0 70 36 70 57 0 7 2 13 5 13 3 0 5 -6 5
-14z m3345 -36 c-10 -11 -23 -20 -29 -20 -6 0 0 9 14 20 32 25 38 25 15 0z
m-2885 -14 c19 -1 -26 -3 -100 -4 -74 -1 -140 2 -147 6 -10 6 166 6 247 -2z
m377 8 c-3 -3 -12 -4 -19 -1 -8 3 -5 6 6 6 11 1 17 -2 13 -5z m240 0 c-3 -3
-12 -4 -19 -1 -8 3 -5 6 6 6 11 1 17 -2 13 -5z m130 0 c-3 -3 -12 -4 -19 -1
-8 3 -5 6 6 6 11 1 17 -2 13 -5z m40 0 c-3 -3 -12 -4 -19 -1 -8 3 -5 6 6 6 11
1 17 -2 13 -5z m40 0 c-3 -3 -12 -4 -19 -1 -8 3 -5 6 6 6 11 1 17 -2 13 -5z
m40 0 c-3 -3 -12 -4 -19 -1 -8 3 -5 6 6 6 11 1 17 -2 13 -5z m40 0 c-3 -3 -12
-4 -19 -1 -8 3 -5 6 6 6 11 1 17 -2 13 -5z m40 0 c-3 -3 -12 -4 -19 -1 -8 3
-5 6 6 6 11 1 17 -2 13 -5z m40 0 c-3 -3 -12 -4 -19 -1 -8 3 -5 6 6 6 11 1 17
-2 13 -5z m40 0 c-3 -3 -12 -4 -19 -1 -8 3 -5 6 6 6 11 1 17 -2 13 -5z m40 0
c-3 -3 -12 -4 -19 -1 -8 3 -5 6 6 6 11 1 17 -2 13 -5z m40 0 c-3 -3 -12 -4
-19 -1 -8 3 -5 6 6 6 11 1 17 -2 13 -5z m40 0 c-3 -3 -12 -4 -19 -1 -8 3 -5 6
6 6 11 1 17 -2 13 -5z m40 0 c-3 -3 -12 -4 -19 -1 -8 3 -5 6 6 6 11 1 17 -2
13 -5z m40 0 c-3 -3 -12 -4 -19 -1 -8 3 -5 6 6 6 11 1 17 -2 13 -5z m40 0 c-3
-3 -12 -4 -19 -1 -8 3 -5 6 6 6 11 1 17 -2 13 -5z m40 0 c-3 -3 -12 -4 -19 -1
-8 3 -5 6 6 6 11 1 17 -2 13 -5z m801 -11 c-10 -2 -26 -2 -35 0 -10 3 -2 5 17
5 19 0 27 -2 18 -5z m325 0 c-57 -2 -149 -2 -205 0 -57 1 -11 3 102 3 113 0
159 -2 103 -3z"/>
</g>
</svg>
