<svg width="748" height="748" viewBox="0 0 748 748" fill="none" xmlns="http://www.w3.org/2000/svg">
<path d="M366.524 39.9601C367.127 108.769 367.73 177.338 368.334 245.807C360.134 246.498 352.936 247.098 344.921 247.778C344.921 245.757 344.921 243.697 344.921 241.626C345.087 204.456 345.174 167.286 345.486 130.115C345.563 121.223 342.889 113.571 338.103 106.299C329.553 93.335 316.967 90.7242 303.116 91.3944C281.007 92.4547 260.669 100.057 241.05 109.97C228.026 116.541 215.868 124.494 206.112 135.747C194.469 149.17 195.228 164.245 207.873 176.318C210.839 179.149 213.621 182.18 216.51 185.1C242.227 211.188 267.935 237.295 293.72 263.322C296.21 265.833 299.216 267.813 301.813 269.904C294.887 276.746 288.157 283.398 280.531 290.93C271.203 281.057 261.116 270.334 250.981 259.661C230.954 238.565 211.005 217.379 190.802 196.454C178.216 183.42 154.833 184.92 142.276 199.224C128.746 214.619 119.058 232.564 111.433 251.519C106.326 264.222 102.114 277.516 99.3035 290.95C94.2845 314.957 110.12 334.062 133.911 334.092C177.185 334.152 220.469 334.142 263.743 334.162C264.53 334.162 265.328 334.162 266.165 334.162V360.139C257.08 360.479 248.55 361.039 240.019 361.079C205.169 361.209 170.318 361.249 135.467 361.179C126.392 361.159 118.407 363.71 110.985 369.212C100.792 376.774 96.687 387.217 97.1539 399.49C97.9904 421.866 105.003 442.562 114.759 462.378C121.646 476.392 128.921 490.145 139.679 501.538C152.285 514.882 168.606 515.722 181.912 502.799C193.915 491.136 205.1 478.582 216.665 466.439C237.082 445.023 257.508 423.617 277.934 402.221C278.235 401.901 278.663 401.701 278.634 401.721C284.918 409.273 291.094 416.695 297.796 424.757C295.899 426.698 293.555 429.098 291.211 431.479C262.391 460.737 233.658 490.075 204.721 519.213C191.843 532.187 193.458 554.093 205.947 566.277C219.097 579.11 234.893 587.582 251.312 594.804C266.816 601.626 282.739 607.318 299.751 608.828C319.603 610.589 340.71 596.085 344.746 577.67C345.515 574.149 345.544 570.398 345.534 566.757C345.486 534.758 345.398 502.759 345.204 470.76C345.165 464.188 344.63 457.616 344.318 450.934C351.565 451.265 358.762 451.595 366.252 451.935C366.787 461.047 367.847 470.27 367.799 479.492C367.497 536.158 366.972 592.834 366.456 649.5C366.349 660.943 366.233 660.953 355.222 660.363C316.442 658.292 278.673 651.32 242.743 635.616C172.263 604.797 119.798 554.133 84.7815 484.144C68.2656 451.135 58.5098 416.355 55.407 379.254C51.3412 330.731 58.9475 284.238 76.1345 239.286C94.6541 190.852 122.784 148.99 161.515 115.401C199.887 82.1318 243.657 59.3555 292.893 48.0424C315.44 42.8609 338.152 39.65 361.262 39.56C362.682 39.56 364.102 39.7801 366.505 39.9801L366.524 39.9601Z" fill="#FEFCFD"/>
<path d="M386.343 660.239V624.337C453.744 617.42 513.321 591.467 561.267 541.812C609.03 492.338 638.007 432.954 639.988 361.56H675.333C674.974 367.285 674.712 372.71 674.275 378.125C670.761 421.324 658.209 461.5 637.493 499.274C616.272 537.959 588.362 570.268 553.647 596.371C523.776 618.832 491.071 635.747 455.899 647.467C434.911 654.464 413.35 658.688 391.343 660.399C390.372 660.479 389.401 660.569 388.44 660.559C387.829 660.559 387.227 660.379 386.333 660.239H386.343Z" fill="#FEFCFD"/>
<path d="M386.363 40.56C465.287 47.7752 533.716 78.1328 588.6 136.723C640.789 192.438 669.365 259.86 675.333 337.56H640.411C639.723 330.804 639.229 324.237 638.357 317.721C631.157 264.56 609.617 218.115 576.138 177.299C545.276 139.676 506.982 112.792 462.758 94.6589C439.628 85.1784 415.403 80.5978 390.626 78.9611C387.971 78.7815 386.314 78.2326 386.334 75.0791C386.392 63.9619 386.353 52.8448 386.353 40.56H386.363Z" fill="#FEFCFD"/>
<path d="M286.35 349.473C285.451 303.742 320.963 271.459 358.625 269.666C408.476 267.283 440.733 305.284 442.277 347.019C443.949 392.129 408.095 427.817 368.361 429.489C322.282 431.432 286.37 393.231 286.35 349.473ZM324.697 351.365C324.501 371.512 342.34 389.536 362.701 389.786C383.785 390.047 403.041 371.512 403.247 350.774C403.462 328.745 386.669 310.951 365.506 310.791C342.731 310.621 324.912 328.334 324.697 351.375V351.365Z" fill="#FEFCFD"/>
<path d="M400.948 444.799C405.187 461.386 409.321 477.576 413.464 493.765L414.973 493.527C414.839 492.054 414.839 490.551 414.56 489.109C412.041 475.795 409.571 462.471 406.86 449.187C406.235 446.112 406.148 444.003 409.273 442.272C411.436 441.068 413.06 438.829 415.435 436.56C452.301 471.347 488.043 507.248 522.333 545.16C508.539 556.623 494.321 565.708 479.199 573.369C452.071 587.101 423.654 596.106 393.565 599.47C389.364 599.937 388.287 598.634 388.335 594.544C388.71 560.235 389.046 525.925 389.191 491.616C389.248 479.029 388.912 466.441 388.479 453.854C388.364 450.471 389.018 448.63 392.44 447.864C395.353 447.217 398.112 445.844 400.948 444.789V444.799Z" fill="#FEFCFD"/>
<path d="M419.664 199.202C417.285 204.745 414.84 210.268 412.529 215.84C407.965 226.826 403.44 237.831 398.973 248.867C397.365 252.832 394.476 251.513 391.636 251.154C388.613 250.774 388.333 248.917 388.333 246.28C388.391 199.372 388.382 152.464 388.391 105.556C388.391 104.747 388.459 103.928 388.516 102.56C436.754 104.358 478.79 123.003 518.333 151.795C513.577 157.787 509.379 164.079 504.228 169.372C483.402 190.783 462.201 211.816 441.298 233.148C433.769 240.837 426.683 248.997 419.356 256.906C417.709 258.684 415.899 260.302 414.618 261.56C410.777 258.714 407.34 256.167 403.363 253.221C410.228 236.114 416.9 218.317 421.83 199.921L419.664 199.212V199.202Z" fill="#FEFCFD"/>
<path d="M564.216 503.56C560.37 500.133 556.302 496.906 552.689 493.199C524.18 463.959 495.759 434.629 467.328 405.309C465.274 403.195 463.366 400.92 461.332 398.775C455.985 393.164 455.985 392.002 461.429 385.899C478.429 392.633 494.19 402.603 511.742 407.914C512.101 407.273 512.449 406.632 512.808 405.99C510.919 404.457 509.253 402.413 507.122 401.481C493.792 395.629 480.463 389.757 466.911 384.496C462.591 382.823 460.838 381.24 463.23 376.56H615.333C614.985 411.411 594.71 468.358 564.216 503.54V503.56Z" fill="#FEFCFD"/>
<path d="M616.333 319.55H460.74C460.506 317.722 460.213 315.455 459.882 312.858C478.592 305.207 497.682 298.415 513.819 285.72L513.137 284.232C495.041 292.522 476.945 300.822 458.82 309.132C456.851 306.476 455.204 304.258 453.333 301.731C488.804 265.714 524.158 229.797 559.853 193.56C589.779 230.466 608.889 271.607 616.333 319.56V319.55Z" fill="#FEFCFD"/>
<path d="M433.333 424.249C436.709 419.933 440.297 415.356 443.257 411.56C445.279 413.613 447.503 416.047 449.912 418.28C460.077 427.734 470.697 436.698 480.408 446.623C502.857 469.578 524.871 492.993 547.039 516.228C548.48 517.741 549.776 519.393 551.333 521.216C550.347 522.107 549.68 522.768 548.964 523.369C539.06 531.531 537.735 531.912 528.091 522.778C519.087 514.245 511.117 504.551 502.431 495.637C485.505 478.281 468.337 461.185 451.401 443.839C445.153 437.439 439.243 430.679 433.333 424.249Z" fill="#FEFCFD"/>
<path d="M443.424 286.56C439.057 281.582 435.546 277.573 431.333 272.765C464.258 236.007 500.559 202.658 533.012 166.56C536.533 171.068 539.995 175.527 544.333 181.085C512.226 214.644 477.801 250.632 443.424 286.55V286.56Z" fill="#FEFCFD"/>
<path d="M617.333 340.56V356.56H465.333V340.56H617.333Z" fill="#FEFCFD"/>
<path d="M369.303 685.07C434.123 685.07 498.954 685.09 563.774 685.04C569.584 685.04 575.084 684.97 578.194 691.37C581.134 697.42 579.264 702.8 572.594 705.27C570.614 706 568.363 706.3 566.243 706.28C535.264 705.99 504.274 705.39 473.294 705.31C394.474 705.1 315.654 705.02 236.834 705.11C215.524 705.13 194.214 706.05 172.904 706.3C169.724 706.34 166.274 705.44 163.404 704.03C159.384 702.06 157.164 698.46 158.284 693.7C159.404 688.99 162.504 686.24 167.354 685.73C169.834 685.47 172.344 685.43 174.844 685.42C229.174 685.21 283.494 685.01 337.824 684.83C348.324 684.79 358.814 684.83 369.314 684.83C369.314 684.91 369.314 685 369.314 685.08L369.303 685.07Z" fill="#FEFCFD"/>
<path d="M615.223 683.67C621.193 683.7 627.213 690.1 627.043 696.23C626.893 701.79 620.333 707.59 614.333 707.44C608.393 707.3 602.103 701.25 602.073 695.66C602.043 689.79 608.793 683.63 615.223 683.66V683.67Z" fill="#FEFCFD"/>
<path d="M122.414 684.29C129.474 684.27 134.524 689.2 134.454 696.05C134.394 701.65 128.064 708.03 122.524 708.08C117.374 708.13 110.064 700.41 110.114 694.99C110.164 689.59 116.234 684.31 122.414 684.29Z" fill="#FEFCFD"/>
</svg>
