<svg width="1024" height="1024" viewBox="0 0 1024 1024" fill="none" xmlns="http://www.w3.org/2000/svg">
<path d="M534.63 171.84C535.25 240.63 535.87 309.18 536.49 377.63C528.06 378.32 520.66 378.92 512.42 379.6C512.42 377.58 512.42 375.52 512.42 373.45C512.59 336.29 512.68 299.13 513 261.97C513.08 253.08 510.33 245.43 505.41 238.16C496.62 225.2 483.68 222.59 469.44 223.26C446.71 224.32 425.8 231.92 405.63 241.83C392.24 248.4 379.74 256.35 369.71 267.6C357.74 281.02 358.52 296.09 371.52 308.16C374.57 310.99 377.43 314.02 380.4 316.94C406.84 343.02 433.27 369.12 459.78 395.14C462.34 397.65 465.43 399.63 468.1 401.72C460.98 408.56 454.06 415.21 446.22 422.74C436.63 412.87 426.26 402.15 415.84 391.48C395.25 370.39 374.74 349.21 353.97 328.29C341.03 315.26 316.99 316.76 304.08 331.06C290.17 346.45 280.21 364.39 272.37 383.34C267.12 396.04 262.79 409.33 259.9 422.76C254.74 446.76 271.02 465.86 295.48 465.89C339.97 465.95 384.47 465.94 428.96 465.96C429.77 465.96 430.59 465.96 431.45 465.96V491.93C422.11 492.27 413.34 492.83 404.57 492.87C368.74 493 332.91 493.04 297.08 492.97C287.75 492.95 279.54 495.5 271.91 501C261.43 508.56 257.21 519 257.69 531.27C258.55 553.64 265.76 574.33 275.79 594.14C282.87 608.15 290.35 621.9 301.41 633.29C314.37 646.63 331.15 647.47 344.83 634.55C357.17 622.89 368.67 610.34 380.56 598.2C401.55 576.79 422.55 555.39 443.55 534C443.86 533.68 444.3 533.48 444.27 533.5C450.73 541.05 457.08 548.47 463.97 556.53C462.02 558.47 459.61 560.87 457.2 563.25C427.57 592.5 398.03 621.83 368.28 650.96C355.04 663.93 356.7 685.83 369.54 698.01C383.06 710.84 399.3 719.31 416.18 726.53C432.12 733.35 448.49 739.04 465.98 740.55C486.39 742.31 508.09 727.81 512.24 709.4C513.03 705.88 513.06 702.13 513.05 698.49C513 666.5 512.91 634.51 512.71 602.52C512.67 595.95 512.12 589.38 511.8 582.7C519.25 583.03 526.65 583.36 534.35 583.7C534.9 592.81 535.99 602.03 535.94 611.25C535.63 667.9 535.09 724.56 534.56 781.21C534.45 792.65 534.33 792.66 523.01 792.07C483.14 790 444.31 783.03 407.37 767.33C334.91 736.52 280.97 685.87 244.97 615.9C227.99 582.9 217.96 548.13 214.77 511.04C210.59 462.53 218.41 416.05 236.08 371.11C255.12 322.69 284.04 280.84 323.86 247.26C363.31 214 408.31 191.23 458.93 179.92C482.11 174.74 505.46 171.53 529.22 171.44C530.68 171.44 532.14 171.66 534.61 171.86L534.63 171.84Z" fill="#FEFCFD"/>
<path d="M555.24 791.66V755.79C624.67 748.88 686.04 722.95 735.43 673.34C784.63 623.91 814.48 564.58 816.52 493.25H852.93C852.56 498.97 852.29 504.39 851.84 509.8C848.22 552.96 835.29 593.1 813.95 630.84C792.09 669.49 763.34 701.77 727.58 727.85C696.81 750.29 663.12 767.19 626.89 778.9C605.27 785.89 583.06 790.11 560.39 791.82C559.39 791.9 558.39 791.99 557.4 791.98C556.77 791.98 556.15 791.8 555.23 791.66H555.24Z" fill="#FEFCFD"/>
<path d="M555.2 171.56C636.65 178.79 707.27 209.21 763.91 267.92C817.77 323.75 847.26 391.31 853.42 469.17H817.38C816.67 462.4 816.16 455.82 815.26 449.29C807.83 396.02 785.6 349.48 751.05 308.58C719.2 270.88 679.68 243.94 634.04 225.77C610.17 216.27 585.17 211.68 559.6 210.04C556.86 209.86 555.15 209.31 555.17 206.15C555.23 195.01 555.19 183.87 555.19 171.56H555.2Z" fill="#FEFCFD"/>
<path d="M453.37 480.74C452.45 435.07 488.78 402.83 527.31 401.04C578.31 398.66 611.31 436.61 612.89 478.29C614.6 523.34 577.92 558.98 537.27 560.65C490.13 562.59 453.39 524.44 453.37 480.74ZM492.6 482.63C492.4 502.75 510.65 520.75 531.48 521C553.05 521.26 572.75 502.75 572.96 482.04C573.18 460.04 556 442.27 534.35 442.11C511.05 441.94 492.82 459.63 492.6 482.64V482.63Z" fill="#FEFCFD"/>
<path d="M570.18 575.85C574.59 592.52 578.89 608.79 583.2 625.06L584.77 624.82C584.63 623.34 584.63 621.83 584.34 620.38C581.72 607 579.15 593.61 576.33 580.26C575.68 577.17 575.59 575.05 578.84 573.31C581.09 572.1 582.78 569.85 585.25 567.57C623.6 602.53 660.78 638.61 696.45 676.71C682.1 688.23 667.31 697.36 651.58 705.06C623.36 718.86 593.8 727.91 562.5 731.29C558.13 731.76 557.01 730.45 557.06 726.34C557.45 691.86 557.8 657.38 557.95 622.9C558.01 610.25 557.66 597.6 557.21 584.95C557.09 581.55 557.77 579.7 561.33 578.93C564.36 578.28 567.23 576.9 570.18 575.84V575.85Z" fill="#FEFCFD"/>
<path d="M589.48 330.43C587.01 335.98 584.47 341.51 582.07 347.09C577.33 358.09 572.63 369.11 567.99 380.16C566.32 384.13 563.32 382.81 560.37 382.45C557.23 382.07 556.94 380.21 556.94 377.57C557 330.6 556.99 283.63 557 236.66C557 235.85 557.07 235.03 557.13 233.66C607.23 235.46 650.89 254.13 691.96 282.96C687.02 288.96 682.66 295.26 677.31 300.56C655.68 322 633.66 343.06 611.95 364.42C604.13 372.12 596.77 380.29 589.16 388.21C587.45 389.99 585.57 391.61 584.24 392.87C580.25 390.02 576.68 387.47 572.55 384.52C579.68 367.39 586.61 349.57 591.73 331.15L589.48 330.44V330.43Z" fill="#FEFCFD"/>
<path d="M738.91 634.92C734.94 631.5 730.74 628.28 727.01 624.58C697.58 595.4 668.24 566.13 638.89 536.87C636.77 534.76 634.8 532.49 632.7 530.35C627.18 524.75 627.18 523.59 632.8 517.5C650.35 524.22 666.62 534.17 684.74 539.47C685.11 538.83 685.47 538.19 685.84 537.55C683.89 536.02 682.17 533.98 679.97 533.05C666.21 527.21 652.45 521.35 638.46 516.1C634 514.43 632.19 512.85 634.66 508.18H791.68C791.32 542.96 770.39 599.79 738.91 634.9V634.92Z" fill="#FEFCFD"/>
<path d="M792.2 451.31H632.53C632.29 449.48 631.99 447.21 631.65 444.61C650.85 436.95 670.44 430.15 687 417.44L686.3 415.95C667.73 424.25 649.16 432.56 630.56 440.88C628.54 438.22 626.85 436 624.93 433.47C661.33 397.41 697.61 361.45 734.24 325.17C764.95 362.12 784.56 403.31 792.2 451.32V451.31Z" fill="#FEFCFD"/>
<path d="M528.97 816.51C593.79 816.51 658.62 816.53 723.44 816.48C729.25 816.48 734.75 816.41 737.86 822.81C740.8 828.86 738.93 834.24 732.26 836.71C730.28 837.44 728.03 837.74 725.91 837.72C694.93 837.43 663.94 836.83 632.96 836.75C554.14 836.54 475.32 836.46 396.5 836.55C375.19 836.57 353.88 837.49 332.57 837.74C329.39 837.78 325.94 836.88 323.07 835.47C319.05 833.5 316.83 829.9 317.95 825.14C319.07 820.43 322.17 817.68 327.02 817.17C329.5 816.91 332.01 816.87 334.51 816.86C388.84 816.65 443.16 816.45 497.49 816.27C507.99 816.23 518.48 816.27 528.98 816.27C528.98 816.35 528.98 816.44 528.98 816.52L528.97 816.51Z" fill="#FEFCFD"/>
<path d="M604.22 556.13C607.71 551.82 611.42 547.25 614.48 543.46C616.57 545.51 618.87 547.94 621.36 550.17C631.87 559.61 642.85 568.56 652.89 578.47C676.1 601.39 698.86 624.77 721.78 647.97C723.27 649.48 724.61 651.13 726.22 652.95C725.2 653.84 724.51 654.5 723.77 655.1C713.53 663.25 712.16 663.63 702.19 654.51C692.88 645.99 684.64 636.31 675.66 627.41C658.16 610.08 640.41 593.01 622.9 575.69C616.44 569.3 610.33 562.55 604.22 556.13Z" fill="#FEFCFD"/>
<path d="M614.12 418.13C609.58 413.15 605.93 409.14 601.55 404.33C635.78 367.56 673.52 334.2 707.26 298.09C710.92 302.6 714.52 307.06 719.03 312.62C685.65 346.19 649.86 382.19 614.12 418.12V418.13Z" fill="#FEFCFD"/>
<path d="M794.1 471.8V488.23H636.36V471.8H794.1Z" fill="#FEFCFD"/>
<path d="M774.89 815.11C780.86 815.14 786.88 821.54 786.71 827.67C786.56 833.23 780 839.03 774 838.88C768.06 838.74 761.77 832.69 761.74 827.1C761.71 821.23 768.46 815.07 774.89 815.1V815.11Z" fill="#FEFCFD"/>
<path d="M282.08 815.73C289.14 815.71 294.19 820.64 294.12 827.49C294.06 833.09 287.73 839.47 282.19 839.52C277.04 839.57 269.73 831.85 269.78 826.43C269.83 821.03 275.9 815.75 282.08 815.73Z" fill="#FEFCFD"/>
</svg>
